nColumns=28
nRows=72
DataType=double
version=3
OpenSimVersion=4.1
endheader
time	ground_force_1_vx	ground_force_1_vy	ground_force_1_vz	ground_force_1_px	ground_force_1_py	ground_force_1_pz	ground_force_1_mx	ground_force_1_my	ground_force_1_mz	ground_force_2_vx	ground_force_2_vy	ground_force_2_vz	ground_force_2_px	ground_force_2_py	ground_force_2_pz	ground_force_2_mx	ground_force_2_my	ground_force_2_mz	ground_force_3_vx	ground_force_3_vy	ground_force_3_vz	ground_force_3_px	ground_force_3_py	ground_force_3_pz	ground_force_3_mx	ground_force_3_my	ground_force_3_mz
10.03	4.20823	323.218	-35.4923	-0.266656	0.006	-0.42023	0	-0.471277	0	-9.0817	197.453	35.5236	-0.16081	0.006	-0.778004	0	0.360749	0	0	0	0	0	0	0	0	0	0
10.04	3.58806	320.252	-35.6809	-0.264683	0.006	-0.41978	0	-0.428528	0	-8.91528	189.733	34.2414	-0.158453	0.006	-0.77777	0	0.413538	0	0	0	0	0	0	0	0	0	0
10.05	1.51102	317.145	-36.0076	-0.262501	0.006	-0.419048	0	-0.372343	0	-8.94682	181.817	33.1486	-0.155771	0.006	-0.777171	0	0.437933	0	0	0	0	0	0	0	0	0	0
10.06	-0.732731	313.448	-36.1576	-0.260726	0.006	-0.418322	0	-0.286268	0	-9.2024	174.493	32.4489	-0.152704	0.006	-0.776869	0	0.416529	0	0	0	0	0	0	0	0	0	0
10.07	-1.97799	310.539	-36.209	-0.259586	0.006	-0.417786	0	-0.178082	0	-9.61822	167.585	31.9331	-0.149848	0.006	-0.7769	0	0.371304	0	0	0	0	0	0	0	0	0	0
10.08	-1.99215	308.553	-36.0073	-0.259001	0.006	-0.417434	0	-0.0799572	0	-9.85366	160.904	31.3822	-0.147319	0.006	-0.776975	0	0.350114	0	0	0	0	0	0	0	0	0	0
10.09	-0.987732	306.634	-35.4601	-0.258694	0.006	-0.417227	0	-0.00591995	0	-9.78181	154.493	30.6778	-0.144885	0.006	-0.777041	0	0.329392	0	0	0	0	0	0	0	0	0	0
10.1	0.398099	305.586	-34.9972	-0.258331	0.006	-0.417222	0	0.0508132	0	-9.53539	148.912	29.9043	-0.14249	0.006	-0.777088	0	0.318625	0	0	0	0	0	0	0	0	0	0
10.11	1.50853	305.892	-34.7631	-0.257666	0.006	-0.417039	0	0.0931764	0	-9.46553	144.885	29.212	-0.140016	0.006	-0.776926	0	0.313333	0	0	0	0	0	0	0	0	0	0
10.12	1.8636	305.452	-34.6789	-0.256404	0.006	-0.416667	0	0.115724	0	-9.55837	142.128	28.5171	-0.137343	0.006	-0.776884	0	0.354111	0	0	0	0	0	0	0	0	0	0
10.13	1.4893	303.558	-34.8625	-0.254263	0.006	-0.416183	0	0.110048	0	-9.61616	140.066	27.7956	-0.134722	0.006	-0.777	0	0.398525	0	0	0	0	0	0	0	0	0	0
10.14	0.140758	301.621	-35.1723	-0.251519	0.006	-0.415539	0	0.131877	0	-9.70884	138.816	27.2474	-0.132513	0.006	-0.777362	0	0.38961	0	0	0	0	0	0	0	0	0	0
10.15	-2.28896	300.146	-34.9001	-0.248707	0.006	-0.414792	0	0.187006	0	-9.84516	138.072	27.0125	-0.130863	0.006	-0.777352	0	0.409972	0	0	0	0	0	0	0	0	0	0
10.16	-4.29427	297.956	-34.2412	-0.246621	0.006	-0.41424	0	0.245089	0	-9.96188	137.821	27.0666	-0.12948	0.006	-0.777443	0	0.403133	0	0	0	0	0	0	0	0	0	0
10.17	-4.47851	296.318	-33.9629	-0.245375	0.006	-0.413654	0	0.300706	0	-10.2283	138.421	27.2983	-0.128604	0.006	-0.777832	0	0.332651	0	0	0	0	0	0	0	0	0	0
10.18	-3.15723	295.795	-33.4391	-0.244578	0.006	-0.413157	0	0.365574	0	-10.7687	139.812	27.7503	-0.127888	0.006	-0.777923	0	0.225688	0	0	0	0	0	0	0	0	0	0
10.19	-1.29879	294.87	-32.585	-0.24388	0.006	-0.412628	0	0.410408	0	-11.146	142.044	28.2911	-0.127072	0.006	-0.777877	0	0.131706	0	0	0	0	0	0	0	0	0	0
10.2	0.186763	293.925	-32.1915	-0.242813	0.006	-0.411891	0	0.396374	0	-11.1331	145.134	28.6095	-0.126323	0.006	-0.778385	0	0.119565	0	0	0	0	0	0	0	0	0	0
10.21	1.10884	293.405	-32.1314	-0.241365	0.006	-0.411474	0	0.378807	0	-11.2332	149.37	28.645	-0.12569	0.006	-0.778979	0	0.169973	0	0	0	0	0	0	0	0	0	0
10.22	1.52869	293.221	-32.1428	-0.239733	0.006	-0.41123	0	0.385281	0	-11.5932	154.414	28.6411	-0.124969	0.006	-0.779532	0	0.245874	0	0	0	0	0	0	0	0	0	0
10.23	1.55668	294.389	-32.0637	-0.238054	0.006	-0.411024	0	0.410886	0	-11.9642	159.916	28.8425	-0.124709	0.006	-0.779749	0	0.330302	0	0	0	0	0	0	0	0	0	0
10.24	1.40899	298.391	-31.5676	-0.236585	0.006	-0.410982	0	0.400872	0	-12.3475	165.927	29.4138	-0.124515	0.006	-0.780117	0	0.409097	0	0	0	0	0	0	0	0	0	0
10.25	1.44494	304.84	-30.7921	-0.235356	0.006	-0.41099	0	0.330729	0	-12.9964	172.311	30.3857	-0.12445	0.006	-0.780434	0	0.428113	0	0	0	0	0	0	0	0	0	0
10.26	2.00407	312.681	-30.2998	-0.234322	0.006	-0.410933	0	0.192032	0	-13.8609	178.87	31.8424	-0.12419	0.006	-0.781045	0	0.385545	0	0	0	0	0	0	0	0	0	0
10.27	3.09173	320.448	-30.1368	-0.233612	0.006	-0.410664	0	0.0210284	0	-14.4942	185.52	33.5052	-0.123948	0.006	-0.78216	0	0.373567	0	0	0	0	0	0	0	0	0	0
10.28	4.41481	327.921	-30.5877	-0.233145	0.006	-0.410215	0	-0.128325	0	-15.0954	192.207	35.2245	-0.124047	0.006	-0.783214	0	0.375433	0	0	0	0	0	0	0	0	0	0
10.29	5.43274	335.409	-31.7952	-0.232784	0.006	-0.409679	0	-0.250269	0	-15.6922	198.649	36.9366	-0.124287	0.006	-0.783849	0	0.330312	0	0	0	0	0	0	0	0	0	0
10.3	6.39342	341.977	-33.5238	-0.232426	0.006	-0.409005	0	-0.359282	0	-16.0146	204.976	38.5329	-0.124597	0.006	-0.784504	0	0.321126	0	0	0	0	0	0	0	0	0	0
10.31	7.71927	347.144	-35.7327	-0.231892	0.006	-0.408204	0	-0.485375	0	-16.3432	210.935	40.1207	-0.12448	0.006	-0.785316	0	0.329728	0	0	0	0	0	0	0	0	0	0
10.32	8.87253	351.093	-38.0853	-0.230983	0.006	-0.407286	0	-0.591348	0	-16.5576	215.951	41.5887	-0.123946	0.006	-0.785947	0	0.313617	0	0	0	0	0	0	0	0	0	0
10.33	9.19869	353.883	-39.9413	-0.229686	0.006	-0.406498	0	-0.67899	0	-16.5232	219.805	42.7239	-0.123613	0.006	-0.78608	0	0.291482	0	0	0	0	0	0	0	0	0	0
10.34	8.96829	356.541	-41.2433	-0.228095	0.006	-0.405692	0	-0.765683	0	-16.4365	222.791	43.4746	-0.123471	0.006	-0.786215	0	0.272012	0	0	0	0	0	0	0	0	0	0
10.35	8.13603	359.357	-42.0941	-0.226349	0.006	-0.405058	0	-0.837969	0	-16.4705	224.65	44.0513	-0.123296	0.006	-0.786483	0	0.27452	0	0	0	0	0	0	0	0	0	0
10.36	6.83256	362.239	-42.386	-0.224536	0.006	-0.404835	0	-0.916819	0	-16.6254	225.521	44.5264	-0.123203	0.006	-0.7866	0	0.346483	0	0	0	0	0	0	0	0	0	0
10.37	5.82098	365.597	-42.2938	-0.222805	0.006	-0.404749	0	-0.998785	0	-16.5441	225.122	44.642	-0.122741	0.006	-0.786572	0	0.39644	0	0	0	0	0	0	0	0	0	0
10.38	5.24259	369.232	-42.2501	-0.221135	0.006	-0.404442	0	-1.05129	0	-16.125	223.955	44.4166	-0.122134	0.006	-0.786418	0	0.395982	0	0	0	0	0	0	0	0	0	0
10.39	5.01397	372.209	-42.109	-0.219404	0.006	-0.404211	0	-1.0722	0	-15.4462	222.552	43.9902	-0.121917	0.006	-0.786271	0	0.404146	0	0	0	0	0	0	0	0	0	0
10.4	4.88115	374.364	-41.9457	-0.217536	0.006	-0.403913	0	-1.05296	0	-15.1194	220.981	43.5155	-0.121496	0.006	-0.785909	0	0.429616	0	0	0	0	0	0	0	0	0	0
10.41	4.45054	375.998	-42.0269	-0.215628	0.006	-0.403507	0	-1.01841	0	-15.4485	219.609	43.2067	-0.12106	0.006	-0.78591	0	0.438679	0	0	0	0	0	0	0	0	0	0
10.42	3.41686	377.321	-42.3134	-0.213727	0.006	-0.40306	0	-0.960958	0	-16.1203	218.199	43.0598	-0.120644	0.006	-0.786136	0	0.422112	0	0	0	0	0	0	0	0	0	0
10.43	2.20386	379.147	-42.8445	-0.211832	0.006	-0.402527	0	-0.895174	0	-16.7435	216.897	42.9556	-0.120261	0.006	-0.786026	0	0.382339	0	0	0	0	0	0	0	0	0	0
10.44	1.3222	381.704	-43.6653	-0.210145	0.006	-0.401905	0	-0.851955	0	-17.1606	215.873	42.8237	-0.119914	0.006	-0.785654	0	0.34561	0	0	0	0	0	0	0	0	0	0
10.45	0.795527	384.723	-44.8276	-0.208671	0.006	-0.401237	0	-0.847523	0	-17.3709	215.203	42.719	-0.119411	0.006	-0.785446	0	0.316415	0	0	0	0	0	0	0	0	0	0
10.46	0.0231439	387.531	-46.103	-0.207226	0.006	-0.40073	0	-0.826438	0	-17.379	214.995	42.682	-0.11887	0.006	-0.785304	0	0.314061	0	0	0	0	0	0	0	0	0	0
10.47	-1.08203	389.89	-47.301	-0.205947	0.006	-0.400298	0	-0.836587	0	-17.1975	215.034	42.7951	-0.11855	0.006	-0.785248	0	0.354787	0	0	0	0	0	0	0	0	0	0
10.48	-2.10893	391.678	-48.2574	-0.204842	0.006	-0.400044	0	-0.856764	0	-16.9	214.693	42.9364	-0.118191	0.006	-0.785275	0	0.380338	0	0	0	0	0	0	0	0	0	0
10.49	-2.71875	392.993	-48.7909	-0.204043	0.006	-0.399827	0	-0.843037	0	-16.5444	214.036	42.9951	-0.117978	0.006	-0.785203	0	0.397407	0	0	0	0	0	0	0	0	0	0
10.5	-2.65575	394.692	-49.0379	-0.203465	0.006	-0.399686	0	-0.826601	0	-16.2888	213.31	43.1012	-0.118019	0.006	-0.785175	0	0.420073	0	0	0	0	0	0	0	0	0	0
10.51	-2.29684	396.639	-49.1086	-0.20302	0.006	-0.399638	0	-0.816483	0	-16.0098	212.302	43.2812	-0.118	0.006	-0.785106	0	0.427502	0	0	0	0	0	0	0	0	0	0
10.52	-1.88997	398.567	-48.948	-0.202585	0.006	-0.39959	0	-0.793201	0	-15.4429	210.633	43.3796	-0.117684	0.006	-0.784941	0	0.410779	0	0	0	0	0	0	0	0	0	0
10.53	-1.47069	400.297	-48.6053	-0.202184	0.006	-0.39957	0	-0.747528	0	-14.87	208.993	43.4137	-0.11714	0.006	-0.784717	0	0.412011	0	0	0	0	0	0	0	0	0	0
10.54	-0.835238	401.625	-48.4955	-0.201975	0.006	-0.399477	0	-0.708047	0	-14.586	208.174	43.487	-0.116703	0.006	-0.784492	0	0.442483	0	0	0	0	0	0	0	0	0	0
10.55	0.0629069	402.413	-48.7089	-0.201755	0.006	-0.399297	0	-0.658986	0	-14.525	208.006	43.554	-0.116499	0.006	-0.784426	0	0.511051	0	0	0	0	0	0	0	0	0	0
10.56	0.72064	403.082	-49.3036	-0.201339	0.006	-0.399	0	-0.610297	0	-14.5592	208.054	43.5834	-0.116599	0.006	-0.784477	0	0.560858	0	0	0	0	0	0	0	0	0	0
10.57	0.731068	403.426	-50.0252	-0.20073	0.006	-0.398585	0	-0.556384	0	-14.5622	208.141	43.474	-0.116512	0.006	-0.784276	0	0.577596	0	0	0	0	0	0	0	0	0	0
10.58	0.369223	402.888	-50.616	-0.19995	0.006	-0.398115	0	-0.502894	0	-14.5626	208.15	43.1202	-0.116097	0.006	-0.783934	0	0.601067	0	0	0	0	0	0	0	0	0	0
10.59	-0.0753941	401.502	-51.0373	-0.19898	0.006	-0.397686	0	-0.465151	0	-14.4682	207.844	42.6482	-0.115928	0.006	-0.783878	0	0.6493	0	0	0	0	0	0	0	0	0	0
10.6	-0.396492	399.387	-51.3802	-0.197864	0.006	-0.397331	0	-0.4169	0	-14.2276	206.838	42.2529	-0.115921	0.006	-0.783708	0	0.706737	0	0	0	0	0	0	0	0	0	0
10.61	-0.770392	396.582	-51.6368	-0.196625	0.006	-0.39705	0	-0.354436	0	-13.9999	205.168	41.8134	-0.115589	0.006	-0.783308	0	0.755916	0	0	0	0	0	0	0	0	0	0
10.62	-1.37402	393.585	-51.6499	-0.195476	0.006	-0.396774	0	-0.324353	0	-13.911	203.231	41.3473	-0.115074	0.006	-0.78291	0	0.767632	0	0	0	0	0	0	0	0	0	0
10.63	-2.14513	391.316	-51.4186	-0.194393	0.006	-0.396538	0	-0.329428	0	-13.8353	201.349	40.9945	-0.114814	0.006	-0.782739	0	0.73313	0	0	0	0	0	0	0	0	0	0
10.64	-3.04009	389.801	-50.8866	-0.193442	0.006	-0.396427	0	-0.327482	0	-13.6058	199.575	40.7792	-0.11451	0.006	-0.782768	0	0.686503	0	0	0	0	0	0	0	0	0	0
10.65	-3.65444	388.892	-50.2629	-0.192767	0.006	-0.396413	0	-0.332991	0	-13.4213	198.2	40.5894	-0.114207	0.006	-0.782877	0	0.606392	0	0	0	0	0	0	0	0	0	0
10.66	-3.81108	388.166	-49.6142	-0.192412	0.006	-0.396433	0	-0.364958	0	-13.4028	197.464	40.4504	-0.114134	0.006	-0.782835	0	0.546489	0	0	0	0	0	0	0	0	0	0
10.67	-3.6664	387.062	-48.8904	-0.192241	0.006	-0.396504	0	-0.397828	0	-13.3835	197.217	40.6238	-0.114325	0.006	-0.782884	0	0.51399	0	0	0	0	0	0	0	0	0	0
10.68	-3.14387	385.843	-48.3015	-0.19223	0.006	-0.396653	0	-0.426966	0	-13.1497	197.271	40.8463	-0.11449	0.006	-0.783022	0	0.503177	0	0	0	0	0	0	0	0	0	0
10.69	-2.21347	384.727	-47.8577	-0.192315	0.006	-0.396697	0	-0.453941	0	-12.7845	197.722	41.0599	-0.114477	0.006	-0.783017	0	0.496822	0	0	0	0	0	0	0	0	0	0
10.7	-1.29221	383.55	-47.3789	-0.192435	0.006	-0.396836	0	-0.451653	0	-12.5233	198.827	41.5041	-0.114706	0.006	-0.78308	0	0.500671	0	0	0	0	0	0	0	0	0	0
10.71	-0.838844	382.424	-47.0593	-0.192557	0.006	-0.397046	0	-0.435639	0	-12.4293	200.634	42.0901	-0.115271	0.006	-0.783204	0	0.511282	0	0	0	0	0	0	0	0	0	0
10.72	-0.780358	381.534	-46.8849	-0.192611	0.006	-0.397066	0	-0.424384	0	-12.401	202.996	42.5264	-0.115744	0.006	-0.783363	0	0.516185	0	0	0	0	0	0	0	0	0	0
10.73	-0.848074	381.109	-46.8926	-0.192445	0.006	-0.397025	0	-0.421391	0	-12.3939	205.664	42.8893	-0.116161	0.006	-0.783643	0	0.54322	0	0	0	0	0	0	0	0	0	0
10.74	-1.08146	380.618	-46.9949	-0.192026	0.006	-0.397064	0	-0.40792	0	-12.396	208.162	43.137	-0.116533	0.006	-0.783797	0	0.559478	0	0	0	0	0	0	0	0	0	0
